<svg width="232" height="217" viewBox="0 0 232 217" fill="none" xmlns="http://www.w3.org/2000/svg">
<rect width="232" height="217" fill="white"/>
<path d="M23.5736 179.123L41.0676 155.789H49.9937L35.6872 174.75L50.1692 200.211H41.4185L30.7161 181.31L23.5665 190.727V200.203H16V155.789H23.5665V179.123H23.5736ZM52.6032 191.644C52.6032 186.113 56.5071 182.648 63.4229 182.099L72.1733 181.431V180.762C72.1733 176.689 69.812 175.05 66.1423 175.05C61.8875 175.05 59.519 176.876 59.519 180.033H53.3709C53.3709 173.532 58.5758 169.279 66.4932 169.279C74.4103 169.279 79.1987 173.653 79.1987 181.979V200.211H72.8752L72.3416 195.777C71.0987 198.873 67.1364 201 62.5893 201C56.3828 201 52.596 197.295 52.596 191.644H52.6032ZM72.232 188.059V186.481L66.1423 186.969C61.6464 187.398 59.9358 188.916 59.9358 191.343C59.9358 194.079 61.7122 195.416 64.958 195.416C69.3265 195.416 72.1527 192.756 72.2303 188.258L72.232 188.059ZM88.6004 200.211V176.388H82.9858V170.188H88.6004V160.832H95.8084V170.188H101.481V176.388H95.8084V200.211H88.6004ZM104.508 191.644C104.508 186.113 108.412 182.648 115.328 182.099L124.079 181.431V180.762C124.079 176.689 121.717 175.05 118.048 175.05C113.793 175.05 111.424 176.876 111.424 180.033H105.276C105.276 173.532 110.481 169.279 118.398 169.279C126.316 169.279 131.104 173.653 131.104 181.979V200.211H124.78L124.247 195.777C123.004 198.873 119.042 201 114.495 201C108.288 201 104.501 197.295 104.501 191.644H104.508ZM124.137 188.059V186.481L118.048 186.969C113.551 187.398 111.841 188.916 111.841 191.343C111.841 194.079 113.617 195.416 116.863 195.416C121.232 195.416 124.058 192.756 124.135 188.258L124.137 188.059ZM138.318 200.211V155H145.468V200.211H138.318ZM166.933 169.346C175.976 169.346 182.54 175.787 182.54 185.143C182.54 194.499 175.976 200.94 166.933 200.94C157.89 200.94 151.325 194.499 151.325 185.143C151.325 175.787 157.89 169.346 166.933 169.346ZM166.933 194.319C171.896 194.319 175.325 190.614 175.325 185.143C175.325 179.672 171.896 175.967 166.933 175.967C161.969 175.967 158.54 179.672 158.54 185.143C158.54 190.614 161.969 194.319 166.933 194.319ZM188.27 200.211V170.196H194.952L195.544 174.088C197.379 171.052 200.925 169.286 204.887 169.286C212.22 169.286 216 173.968 216 181.746V200.218H208.791V183.505C208.791 178.462 206.364 176.027 202.643 176.027C198.213 176.027 195.493 179.184 195.493 184.046V200.211H188.27Z" fill="black"/>
<path d="M156.219 97.9131H116.109V138.876H156.219V97.9131Z" fill="#19D89F"/>
<path d="M116.11 16L76 56.9634V97.9268H116.11L156.206 56.9634V16H116.11Z" fill="black"/>
</svg>
