<svg xmlns="http://www.w3.org/2000/svg" fill="none" viewBox="0 36 96 23">
  <path fill="#27aae1" d="M1 54.4503h9.4515l5.4201 5.0169v-5.0169h7.2342V36.5327H1v17.9176Z" stroke-width="1"></path>
  <path fill="#34a574" d="M24.9648 54.4503h22.1058V36.5327H24.9648v17.9176Z" stroke-width="1"></path>
  <path fill="#375c93" d="M48.9297 54.4503h22.1058V36.5327H48.9297v17.9176Z" stroke-width="1"></path>
  <path fill="#8dc63f" d="M72.8945 36.5327v17.9176h22.1058V36.5327H72.8945Z" stroke-width="1"></path>
  <path fill="#ffffff" d="M83.8234 40.5417c2.3964 0 4.8377 0.3808 6.1143 0.8959v2.2397c-1.4558 -0.6271 -3.9866 -1.075 -6.0919 -1.075 -2.3293 0 -3.3372 0.1567 -3.6284 0.4479 -0.1119 0.112 -0.1791 0.2464 -0.1791 0.4255 0 0.2016 0.0448 0.336 0.1567 0.448 0.2912 0.2911 1.3663 0.3807 3.8747 0.4255 3.6731 0.0896 5.2633 0.4032 6.0696 1.1871 0.4031 0.4031 0.6271 1.0302 0.6271 1.7245 0 0.7391 -0.1568 1.4558 -0.6943 1.9934 -0.7167 0.7167 -2.2845 1.2766 -6.0024 1.2766 -2.7548 0 -5.3976 -0.4256 -6.8758 -1.0527V47.216c1.4334 0.6495 4.5017 1.2319 6.8758 1.2319 2.0605 0 3.5163 -0.0672 3.9195 -0.4704 0.1344 -0.1567 0.1568 -0.2911 0.1568 -0.4479 0 -0.1792 -0.0448 -0.2912 -0.1568 -0.4031 -0.0135 -0.0135 -0.0274 -0.0267 -0.0424 -0.0396l-0.0154 -0.0129c-0.2424 -0.1962 -0.7897 -0.3355 -3.8393 -0.4179 -3.5163 -0.0896 -5.2409 -0.4479 -6.0472 -1.2542 -0.3583 -0.3808 -0.5823 -0.9855 -0.5823 -1.6798 0 -0.7391 0.1344 -1.3886 0.7391 -1.9933 0.7839 -0.7839 2.3741 -1.1871 5.6217 -1.1871Zm-46.1602 0.1344 6.8983 9.6531h-3.158l-1.299 -1.8589h-8.5332l-1.2991 1.8813h-3.0235l6.8982 -9.6755h3.5163Zm-28.95922 0.0448 7.97332 7.4358v-7.4358h2.6428v9.6083h-4.009L7.20339 42.759v7.5702H4.56055v-9.6083h4.14343Zm58.63522 0v2.1725h-6.092v7.4358h-2.7324v-7.4358h-6.1144v-2.1725h14.9388Zm-31.5125 1.6574 -2.8668 4.0986h5.7336l-2.8668 -4.0986Z" stroke-width="1"></path>
</svg>