<svg xmlns="http://www.w3.org/2000/svg" fill="none" viewBox="0 31 96 34">
  <path fill="#f5a800" d="M18.4373 49.5386c-1.4049 1.405 -1.4049 3.6857 0 5.0907 1.405 1.405 3.6858 1.405 5.0908 0 1.4049 -1.405 1.4049 -3.6857 0 -5.0907 -1.405 -1.405 -3.6858 -1.405 -5.0908 0Zm3.8109 3.8108c-0.6929 0.6928 -1.8285 0.6928 -2.5213 0 -0.6929 -0.6929 -0.6929 -1.8284 0 -2.5213 0.6928 -0.6929 1.8284 -0.6929 2.5213 0 0.6928 0.6929 0.6928 1.8284 0 2.5213Zm3.4066 -3.0795h1.5108v0.7603c0.3657 -0.5004 0.8758 -0.8661 1.6552 -0.8661 1.2414 0 2.4251 0.9719 2.4251 2.7522v0.0193c0 1.7803 -1.1644 2.7522 -2.4251 2.7522 -0.8083 0 -1.2991 -0.3657 -1.6552 -0.7987v2.2807h-1.5108v-6.8999Zm4.0803 2.6753v-0.0193c0 -0.8853 -0.5967 -1.4723 -1.2992 -1.4723 -0.7025 0 -1.2895 0.587 -1.2895 1.4723v0.0193c0 0.8853 0.587 1.4724 1.2895 1.4724 0.7025 -0.0097 1.2992 -0.5774 1.2992 -1.4724Zm2.579 0.0096v-0.0192c0 -1.5109 1.0778 -2.7619 2.6175 -2.7619 1.7707 0 2.579 1.3761 2.579 2.8774 0 0.1154 -0.0096 0.2598 -0.0192 0.3945h-3.6857c0.1443 0.6833 0.6255 1.0393 1.2991 1.0393 0.5004 0 0.8661 -0.154 1.2896 -0.5389l0.8564 0.7603c-0.4908 0.6158 -1.2029 0.9911 -2.1652 0.9911 -1.5975 -0.0096 -2.7715 -1.1259 -2.7715 -2.7426Zm3.7338 -0.4523c-0.0866 -0.6736 -0.4811 -1.1259 -1.1163 -1.1259 -0.6255 0 -1.0297 0.4427 -1.1452 1.1259h2.2615Zm2.5406 -2.2326h1.5397v0.7699c0.356 -0.4523 0.8083 -0.8661 1.5878 -0.8661 1.1644 0 1.8381 0.7699 1.8381 2.0113v3.5028h-1.5398v-3.0217c0 -0.7313 -0.3464 -1.097 -0.9334 -1.097s-0.9623 0.3753 -0.9623 1.097v3.0217h-1.5398v-5.4179h0.0097ZM23.4703 31.8414l-2.2037 2.2037c-0.4331 0.4331 -0.4331 1.1356 0 1.5686l8.6128 8.6128c0.4331 0.4331 1.1355 0.4331 1.5686 0l2.2037 -2.2037c0.4331 -0.4331 0.4331 -1.1355 0 -1.5686l-8.6128 -8.6128c-0.433 -0.4331 -1.1355 -0.4331 -1.5686 0ZM8.02498 60.0087c0.39455 -0.3946 0.39455 -1.0297 0 -1.4243l-1.12592 -1.1259c-0.39456 -0.3946 -1.02969 -0.3946 -1.42424 0l-2.30959 2.3096 -0.63513 -0.6352c-0.34644 -0.3464 -0.92383 -0.3464 -1.27027 0 -0.346439 0.3465 -0.346439 0.9239 0 1.2703l3.82043 3.8205c0.34644 0.3464 0.92384 0.3464 1.27027 0 0.34644 -0.3465 0.34644 -0.9239 0 -1.2703l-0.63513 -0.6351 2.30958 -2.3096Z" stroke-width="1"></path>
  <path fill="#425cc7" d="m19.689 38.1634 -4.8983 4.8983c-0.433 0.433 -0.433 1.1548 0 1.5878l3.0217 3.0217c2.1364 -1.5397 5.1388 -1.3472 7.0635 0.5774l2.4443 -2.4443c0.433 -0.433 0.433 -1.1548 0 -1.5878l-6.0434 -6.0434c-0.4427 -0.4427 -1.1548 -0.4427 -1.5878 -0.0097Zm-3.1469 10.7877 -1.7899 -1.7899c-0.4138 -0.4138 -1.1067 -0.4138 -1.5205 0l-6.30319 6.3032c-0.4138 0.4138 -0.4138 1.1067 0 1.5205l3.57019 3.5702c0.4138 0.4138 1.1067 0.4138 1.5205 0l4.0514 -4.0514c-0.8468 -1.7803 -0.6929 -3.9166 0.4715 -5.5526Zm29.861 0.9912H44.209v-1.4627h5.9761v1.4627H47.991v5.7451h-1.5879v-5.7451Zm3.7916 3.0025v-0.0193c0 -1.5108 1.0778 -2.7619 2.6175 -2.7619 1.7707 0 2.579 1.3762 2.579 2.8774 0 0.1155 -0.0096 0.2598 -0.0192 0.3945h-3.6857c0.1443 0.6833 0.6255 1.0394 1.2991 1.0394 0.5004 0 0.8661 -0.154 1.2895 -0.5389l0.8565 0.7602c-0.4908 0.6159 -1.2029 0.9912 -2.1652 0.9912 -1.5975 0 -2.7715 -1.1163 -2.7715 -2.7426Zm3.7338 -0.4427c-0.0866 -0.6736 -0.4812 -1.1259 -1.1163 -1.1259 -0.6255 0 -1.0297 0.4426 -1.1452 1.1259h2.2615Zm2.5309 -4.0225h1.5013v7.2078h-1.5013v-7.2078Zm2.5694 4.4748v-0.0193c0 -1.5108 1.0778 -2.7618 2.6176 -2.7618 1.7706 0 2.579 1.3761 2.579 2.8773 0 0.1155 -0.0096 0.2598 -0.0193 0.3946h-3.6857c0.1444 0.6832 0.6256 1.0393 1.2992 1.0393 0.5004 0 0.8661 -0.154 1.2895 -0.5389l0.8565 0.7602c-0.4908 0.6159 -1.2029 0.9912 -2.1653 0.9912 -1.5878 -0.0096 -2.7715 -1.1259 -2.7715 -2.7426Zm3.7435 -0.4427c-0.0866 -0.6736 -0.4812 -1.1259 -1.1163 -1.1259 -0.6255 0 -1.0297 0.4427 -1.1452 1.1259h2.2615Zm2.5309 -2.2422h1.5397v0.7699c0.3561 -0.4523 0.818 -0.8661 1.5975 -0.8661 0.7025 0 1.2414 0.3175 1.5205 0.8564 0.4715 -0.5581 1.0393 -0.8564 1.7803 -0.8564 1.1451 0 1.8284 0.6832 1.8284 1.992v3.5221h-1.5397v-3.0217c0 -0.7314 -0.3272 -1.0971 -0.895 -1.0971 -0.5774 0 -0.9335 0.3753 -0.9335 1.0971v3.0217h-1.5397v-3.0217c0 -0.7314 -0.3272 -1.0971 -0.8949 -1.0971 -0.5774 0 -0.9335 0.3753 -0.9335 1.0971v3.0217h-1.5397v-5.4179h0.0096Zm9.3346 2.6753v-0.0193c0 -1.5108 1.0778 -2.7619 2.6175 -2.7619 1.7707 0 2.579 1.3762 2.579 2.8774 0 0.1155 -0.0096 0.2598 -0.0192 0.3945h-3.6857c0.1443 0.6833 0.6255 1.0394 1.2991 1.0394 0.5004 0 0.8661 -0.154 1.2895 -0.5389l0.8565 0.7602c-0.4908 0.6159 -1.2029 0.9912 -2.1652 0.9912 -1.5975 0 -2.7715 -1.1163 -2.7715 -2.7426Zm3.7338 -0.4427c-0.0866 -0.6736 -0.4812 -1.1259 -1.1163 -1.1259 -0.6255 0 -1.0297 0.4426 -1.1452 1.1259h2.2615Zm2.7041 1.5493v-2.5886h-0.6544v-1.328h0.6544v-1.3954h1.5494v1.3954h1.2895v1.328h-1.2799v2.3288c0 0.3561 0.154 0.5293 0.5004 0.5293 0.2887 0 0.5389 -0.0674 0.7602 -0.1925v1.2414c-0.3272 0.1925 -0.7025 0.3176 -1.2221 0.3176 -0.9527 0 -1.5975 -0.3753 -1.5975 -1.636Zm4.0033 -3.8204h1.559v1.1067c0.3175 -0.7603 0.8276 -1.251 1.7514 -1.2126v1.636h-0.0866c-1.0393 0 -1.6745 0.6255 -1.6745 1.9439v2.0305h-1.5589V50.231h0.0096Zm8.2664 -0.0577h1.6552L92.845 55.928c-0.4331 1.1451 -0.895 1.5686 -1.8477 1.5686 -0.5774 0 -1.0008 -0.1444 -1.4146 -0.385l0.5293 -1.1548c0.2117 0.1251 0.4715 0.2214 0.6832 0.2214 0.2695 0 0.4234 -0.0866 0.5582 -0.3657l-2.2038 -5.6392h1.6841l1.2799 3.8204 1.2318 -3.8204Z" stroke-width="1"></path>
</svg>