<svg xmlns="http://www.w3.org/2000/svg" fill="none" viewBox="0 0 96 96">
  <path fill="#da4e31" d="M48.0004 1.00098C22.0439 1.00098 1 22.0424 1 47.9997c0 25.9565 21.0439 46.9996 47.0004 46.9996S95 73.9562 95 47.9997C95 22.0424 73.9561 1.00098 48.0004 1.00098Zm0 87.96352c-7.3851 0 -13.3726 -4.9334 -13.3726 -11.0171h26.7453c0 6.0829 -5.9876 11.0171 -13.3727 11.0171Zm22.0873 -14.6657H25.9106v-8.0105h44.1779v8.0105h-0.0008Zm-0.1584 -12.1335H26.0367c-0.146 -0.1684 -0.2953 -0.3343 -0.4363 -0.5051 -4.5219 -5.4907 -5.5869 -8.3572 -6.6212 -11.2784 -0.0174 -0.0962 5.4833 1.1239 9.384 2.0014 0 0 2.0072 0.4645 4.9417 0.9994 -2.8176 -3.3027 -4.4905 -7.5012 -4.4905 -11.7926 0 -9.4213 7.2259 -17.6541 4.619 -24.3085 2.5372 0.2066 5.251 5.3547 5.4343 13.4042 2.6973 -3.7274 3.8261 -10.5344 3.8261 -14.708 0 -4.3212 2.8474 -9.34085 5.6956 -9.51254 -2.5388 4.18444 0.6577 7.77164 3.4993 16.67044 1.0658 3.3425 0.9298 8.9676 1.7526 12.5349 0.2728 -7.4092 1.5468 -18.2198 6.2471 -21.9521 -2.0735 4.7003 0.3069 10.5816 1.935 13.4091 2.6268 4.5618 4.2193 8.018 4.2193 14.5546 0 4.3826 -1.6182 8.5089 -4.3478 11.7345 3.1036 -0.5822 5.2468 -1.1072 5.2468 -1.1072l10.0791 -1.9666c0.0008 -0.0008 -1.4639 6.0224 -7.0915 11.8225Z" stroke-width="1"></path>
</svg>